<svg width="20" height="22" viewBox="0 0 20 22" fill="none" xmlns="http://www.w3.org/2000/svg">
<path d="M2.41667 19.375H6.04167V11.875H13.2917V19.375H16.9167V8.125L9.66667 2.5L2.41667 8.125V19.375ZM2.41667 21.875C1.75208 21.875 1.18336 21.6304 0.7105 21.1413C0.236833 20.6513 0 20.0625 0 19.375V8.125C0 7.72917 0.0857914 7.35417 0.257375 7C0.428153 6.64583 0.664584 6.35417 0.966667 6.125L8.21667 0.5C8.43819 0.333333 8.66979 0.208333 8.91146 0.125C9.15313 0.0416665 9.40486 0 9.66667 0C9.92847 0 10.1802 0.0416665 10.4219 0.125C10.6635 0.208333 10.8951 0.333333 11.1167 0.5L18.3667 6.125C18.6688 6.35417 18.9056 6.64583 19.0772 7C19.2479 7.35417 19.3333 7.72917 19.3333 8.125V19.375C19.3333 20.0625 19.0969 20.6513 18.624 21.1413C18.1504 21.6304 17.5813 21.875 16.9167 21.875H10.875V14.375H8.45833V21.875H2.41667Z" fill="url(#paint0_linear_2454_401)"/>
<defs>
<linearGradient id="paint0_linear_2454_401" x1="-3.92709" y1="-3.125" x2="24.4209" y2="0.554047" gradientUnits="userSpaceOnUse">
<stop stop-color="#49B6FF"/>
<stop offset="1" stop-color="#A480CF"/>
</linearGradient>
</defs>
</svg>
