<svg width="24" height="24" viewBox="0 0 24 24" fill="none" xmlns="http://www.w3.org/2000/svg">
<path d="M20.7636 11.0311L13.0316 2.61596C12.6691 2.22156 12.1776 2 11.665 2C11.1524 2 10.6609 2.22156 10.2984 2.61596L2.56638 11.0311C2.38615 11.2261 2.24328 11.458 2.14606 11.7135C2.04884 11.969 1.99919 12.243 2.00001 12.5195V22.6177C2.00001 22.9525 2.1222 23.2736 2.33971 23.5103C2.55721 23.747 2.85221 23.88 3.15981 23.88H9.3454C9.653 23.88 9.948 23.747 10.1655 23.5103C10.383 23.2736 10.5052 22.9525 10.5052 22.6177V17.1479H12.8248V22.6177C12.8248 22.9525 12.947 23.2736 13.1645 23.5103C13.382 23.747 13.677 23.88 13.9846 23.88H20.1702C20.4778 23.88 20.7728 23.747 20.9903 23.5103C21.2078 23.2736 21.33 22.9525 21.33 22.6177V12.5195C21.3308 12.243 21.2812 11.969 21.1839 11.7135C21.0867 11.458 20.9438 11.2261 20.7636 11.0311ZM19.0104 21.3555H15.1444V15.8856C15.1444 15.5508 15.0222 15.2298 14.8047 14.993C14.5872 14.7563 14.2922 14.6233 13.9846 14.6233H9.3454C9.0378 14.6233 8.7428 14.7563 8.5253 14.993C8.3078 15.2298 8.1856 15.5508 8.1856 15.8856V21.3555H4.31961V12.6931L11.665 4.69871L19.0104 12.6931V21.3555Z" fill="url(#paint0_linear_2455_419)"/>
<defs>
<linearGradient id="paint0_linear_2455_419" x1="-3.85649e-08" y1="12" x2="23" y2="15" gradientUnits="userSpaceOnUse">
<stop stop-color="#49B6FF"/>
<stop offset="1" stop-color="#A480CF"/>
</linearGradient>
</defs>
</svg>
