<svg width="22" height="28" viewBox="0 0 22 28" fill="none" xmlns="http://www.w3.org/2000/svg">
<path d="M10.6667 17.6842C9.38585 17.6842 8.29715 17.2544 7.40058 16.3947C6.504 15.5351 6.05572 14.4912 6.05572 13.2632V4.42105C6.05572 3.19298 6.504 2.14912 7.40058 1.28947C8.29715 0.429825 9.38585 0 10.6667 0C11.9475 0 13.0362 0.429825 13.9328 1.28947C14.8293 2.14912 15.2776 3.19298 15.2776 4.42105V13.2632C15.2776 14.4912 14.8293 15.5351 13.9328 16.3947C13.0362 17.2544 11.9475 17.6842 10.6667 17.6842ZM10.6667 28C10.2312 28 9.86641 27.8585 9.57234 27.5756C9.27724 27.2936 9.12968 26.9439 9.12968 26.5263V23.4684C6.74736 23.1491 4.72366 22.1912 3.0586 20.5947C1.39353 18.9982 0.381684 17.0825 0.0230547 14.8474C-0.0537945 14.4298 0.0614799 14.0614 0.368877 13.7421C0.676273 13.4228 1.08614 13.2632 1.59846 13.2632C1.95709 13.2632 2.2773 13.3919 2.55908 13.6493C2.84086 13.9076 3.02017 14.2211 3.09702 14.5895C3.43004 16.3088 4.30099 17.7456 5.70989 18.9C7.1188 20.0544 8.77105 20.6316 10.6667 20.6316C12.5623 20.6316 14.2145 20.0544 15.6234 18.9C17.0323 17.7456 17.9033 16.3088 18.2363 14.5895C18.3132 14.2211 18.4991 13.9076 18.7942 13.6493C19.0883 13.3919 19.4147 13.2632 19.7733 13.2632C20.26 13.2632 20.6571 13.4228 20.9645 13.7421C21.2719 14.0614 21.3871 14.4298 21.3103 14.8474C20.9517 17.0825 19.9398 18.9982 18.2747 20.5947C16.6097 22.1912 14.586 23.1491 12.2037 23.4684V26.5263C12.2037 26.9439 12.0566 27.2936 11.7625 27.5756C11.4674 27.8585 11.1021 28 10.6667 28ZM10.6667 14.7368C11.1021 14.7368 11.4674 14.5954 11.7625 14.3124C12.0566 14.0305 12.2037 13.6807 12.2037 13.2632V4.42105C12.2037 4.00351 12.0566 3.65326 11.7625 3.37032C11.4674 3.08835 11.1021 2.94737 10.6667 2.94737C10.2312 2.94737 9.86641 3.08835 9.57234 3.37032C9.27724 3.65326 9.12968 4.00351 9.12968 4.42105V13.2632C9.12968 13.6807 9.27724 14.0305 9.57234 14.3124C9.86641 14.5954 10.2312 14.7368 10.6667 14.7368Z" fill="#49B6FF"/>
</svg>
