<svg width="22" height="22" viewBox="0 0 22 22" fill="none" xmlns="http://www.w3.org/2000/svg">
<path d="M11 0C12.4587 0 13.8576 0.579462 14.8891 1.61091C15.9205 2.64236 16.5 4.04131 16.5 5.5C16.5 6.95869 15.9205 8.35764 14.8891 9.38909C13.8576 10.4205 12.4587 11 11 11C9.54131 11 8.14236 10.4205 7.11091 9.38909C6.07946 8.35764 5.5 6.95869 5.5 5.5C5.5 4.04131 6.07946 2.64236 7.11091 1.61091C8.14236 0.579462 9.54131 0 11 0M11 2.75C10.2707 2.75 9.57118 3.03973 9.05546 3.55546C8.53973 4.07118 8.25 4.77065 8.25 5.5C8.25 6.22935 8.53973 6.92882 9.05546 7.44454C9.57118 7.96027 10.2707 8.25 11 8.25C11.7293 8.25 12.4288 7.96027 12.9445 7.44454C13.4603 6.92882 13.75 6.22935 13.75 5.5C13.75 4.77065 13.4603 4.07118 12.9445 3.55546C12.4288 3.03973 11.7293 2.75 11 2.75M11 12.375C14.6713 12.375 22 14.2037 22 17.875V22H0V17.875C0 14.2037 7.32875 12.375 11 12.375ZM11 14.9875C6.91625 14.9875 2.6125 16.995 2.6125 17.875V19.3875H19.3875V17.875C19.3875 16.995 15.0838 14.9875 11 14.9875V14.9875Z" fill="url(#paint0_linear_2454_402)"/>
<defs>
<linearGradient id="paint0_linear_2454_402" x1="0.5" y1="11.5" x2="22.5" y2="11.5" gradientUnits="userSpaceOnUse">
<stop stop-color="#49B6FF"/>
<stop offset="1" stop-color="#A480CF"/>
</linearGradient>
</defs>
</svg>
