<svg width="20" height="22" viewBox="0 0 20 22" fill="none" xmlns="http://www.w3.org/2000/svg">
<path d="M18.7636 9.03111L11.0316 0.615961C10.6691 0.221561 10.1776 0 9.665 0C9.15244 0 8.66086 0.221561 8.29837 0.615961L0.566378 9.03111C0.386152 9.22606 0.243284 9.45801 0.146061 9.71352C0.0488377 9.96902 -0.000805746 10.243 9.88966e-06 10.5195V20.6177C9.88966e-06 20.9525 0.122203 21.2736 0.339707 21.5103C0.557212 21.747 0.852211 21.88 1.15981 21.88H7.3454C7.653 21.88 7.948 21.747 8.1655 21.5103C8.38301 21.2736 8.5052 20.9525 8.5052 20.6177V15.1479H10.8248V20.6177C10.8248 20.9525 10.947 21.2736 11.1645 21.5103C11.382 21.747 11.677 21.88 11.9846 21.88H18.1702C18.4778 21.88 18.7728 21.747 18.9903 21.5103C19.2078 21.2736 19.33 20.9525 19.33 20.6177V10.5195C19.3308 10.243 19.2812 9.96902 19.1839 9.71352C19.0867 9.45801 18.9438 9.22606 18.7636 9.03111ZM17.0104 19.3555H13.1444V13.8856C13.1444 13.5508 13.0222 13.2298 12.8047 12.993C12.5872 12.7563 12.2922 12.6233 11.9846 12.6233H7.3454C7.0378 12.6233 6.7428 12.7563 6.5253 12.993C6.3078 13.2298 6.1856 13.5508 6.1856 13.8856V19.3555H2.31961V10.6931L9.665 2.69871L17.0104 10.6931V19.3555Z" fill="url(#paint0_linear_2455_420)"/>
<defs>
<linearGradient id="paint0_linear_2455_420" x1="-2" y1="10" x2="21" y2="13" gradientUnits="userSpaceOnUse">
<stop stop-color="#49B6FF"/>
<stop offset="1" stop-color="#A480CF"/>
</linearGradient>
</defs>
</svg>
