<svg width="20" height="22" viewBox="0 0 20 22" fill="none" xmlns="http://www.w3.org/2000/svg">
<path d="M2.5 19.375H6.25V11.875H13.75V19.375H17.5V8.125L10 2.5L2.5 8.125V19.375ZM2.5 21.875C1.8125 21.875 1.22417 21.6304 0.735 21.1413C0.245 20.6513 0 20.0625 0 19.375V8.125C0 7.72917 0.0887498 7.35417 0.26625 7C0.442916 6.64583 0.6875 6.35417 1 6.125L8.5 0.5C8.72917 0.333333 8.96875 0.208333 9.21875 0.125C9.46875 0.0416665 9.72917 0 10 0C10.2708 0 10.5312 0.0416665 10.7812 0.125C11.0313 0.208333 11.2708 0.333333 11.5 0.5L19 6.125C19.3125 6.35417 19.5575 6.64583 19.735 7C19.9117 7.35417 20 7.72917 20 8.125V19.375C20 20.0625 19.7554 20.6513 19.2663 21.1413C18.7763 21.6304 18.1875 21.875 17.5 21.875H11.25V14.375H8.75V21.875H2.5Z" fill="url(#paint0_linear_2454_398)"/>
<defs>
<linearGradient id="paint0_linear_2454_398" x1="-4.06251" y1="-3.125" x2="25.229" y2="0.807579" gradientUnits="userSpaceOnUse">
<stop stop-color="#8A8A8E"/>
</linearGradient>
</defs>
</svg>
