<svg width="32" height="32" viewBox="0 0 32 32" fill="none" xmlns="http://www.w3.org/2000/svg">
<path d="M26 12C24.9693 12.0275 23.9697 11.6454 23.22 10.9376C22.4703 10.2297 22.0317 9.25359 22 8.223C22.0187 7.48718 22.245 6.77164 22.653 6.159L25.17 2.414C25.2667 2.28523 25.3921 2.18073 25.5361 2.10876C25.6802 2.03679 25.839 1.99933 26 1.99933C26.1611 1.99933 26.3199 2.03679 26.4639 2.10876C26.608 2.18073 26.7333 2.28523 26.83 2.414L29.315 6.11C29.7398 6.7348 29.9774 7.46783 30 8.223C29.9684 9.25359 29.5297 10.2297 28.78 10.9376C28.0303 11.6454 27.0307 12.0275 26 12ZM26 4.763L24.344 7.226C24.1371 7.51895 24.0178 7.86475 24 8.223C24.0581 8.71266 24.2937 9.16402 24.6623 9.49153C25.031 9.81904 25.5069 9.99994 26 9.99994C26.4931 9.99994 26.9691 9.81904 27.3377 9.49153C27.7063 9.16402 27.942 8.71266 28 8.223C27.9776 7.84534 27.8475 7.482 27.625 7.176L26 4.763ZM23.5 30H8.50002C6.88908 30.0017 5.33496 29.4048 4.13937 28.3251C2.94378 27.2454 2.19201 25.76 2.03001 24.1572C1.86802 22.5545 2.30734 20.9487 3.26271 19.6516C4.21807 18.3545 5.62131 17.4587 7.20002 17.138C7.62613 15.1198 8.73301 13.3094 10.3352 12.0102C11.9373 10.711 13.9373 10.002 16 10.002C18.0627 10.002 20.0628 10.711 21.6649 12.0102C23.267 13.3094 24.3739 15.1198 24.8 17.138C26.3787 17.4587 27.782 18.3545 28.7373 19.6516C29.6927 20.9487 30.132 22.5545 29.97 24.1572C29.808 25.76 29.0563 27.2454 27.8607 28.3251C26.6651 29.4048 25.111 30.0017 23.5 30ZM16 12C14.2927 12.0016 12.6448 12.6271 11.3665 13.7588C10.0882 14.8906 9.26756 16.4505 9.05902 18.145L8.95902 18.957L8.14402 19.021C6.98327 19.1094 5.90205 19.6445 5.12783 20.5139C4.35362 21.3832 3.94677 22.5189 3.99289 23.6821C4.03901 24.8453 4.5345 25.9453 5.37511 26.7506C6.21572 27.5559 7.33592 28.0038 8.50002 28H23.5C24.6641 28.0038 25.7843 27.5559 26.6249 26.7506C27.4655 25.9453 27.961 24.8453 28.0072 23.6821C28.0533 22.5189 27.6464 21.3832 26.8722 20.5139C26.098 19.6445 25.0168 19.1094 23.856 19.021L23.041 18.957L22.942 18.145C22.7331 16.4505 21.9121 14.8907 20.6337 13.759C19.3553 12.6273 17.7074 12.0018 16 12Z" fill="white"/>
</svg>
