<svg width="23" height="21" viewBox="0 0 23 21" fill="none" xmlns="http://www.w3.org/2000/svg">
<path d="M-2.35103e-05 5.11739C-2.35103e-05 4.54415 0.0625114 2.70979 0.333496 1.65712C0.68786 0.17713 2.29292 -5.20125e-05 3.18926 1.0422C4.21066 2.19909 5.44051 2.67853 6.99346 2.67853C8.84866 2.67853 10.5579 2.19909 12.3193 2.19909C17.4993 2.19909 21.2618 5.56555 21.2618 10.2036C21.2618 11.423 21.0221 12.5486 20.5844 13.5492C21.9185 15.519 22.9815 17.4368 22.9815 18.6562C22.9815 19.7193 22.179 20.6365 21.1889 20.6365C20.6261 20.6365 20.1571 20.3029 19.959 19.688C19.5317 18.3331 19.2711 17.1241 18.823 16.0506C17.2283 17.5618 14.9458 18.4477 12.2777 18.4477C4.86727 18.4477 -2.35103e-05 13.1531 -2.35103e-05 5.11739ZM6.17008 7.8585C5.91994 7.10808 6.72248 6.71202 7.21233 7.27484C8.20247 8.48385 9.77626 8.98413 12.163 9.34891C15.0709 9.77623 17.1866 10.4328 18.6666 11.4751C18.75 11.0686 18.8021 10.6413 18.8021 10.2036C18.8021 6.96216 16.134 4.66922 12.3193 4.66922C11.6419 4.66922 10.9436 4.7526 10.1202 4.86725C9.20303 5.00274 8.15036 5.14865 6.99346 5.14865C5.52389 5.14865 3.93967 4.69006 2.7932 3.88753C2.64729 3.79373 2.53264 3.81458 2.52222 4.04387C2.4701 4.34612 2.4701 4.7526 2.4701 5.11739C2.4701 11.7878 6.25346 15.9776 12.2777 15.9776C14.4768 15.9776 16.2799 15.2272 17.4264 13.9452C16.2695 12.7362 14.8624 12.1004 11.4334 11.3188C8.74444 10.6934 6.74332 9.64074 6.17008 7.8585Z" fill="#3C3C43" fill-opacity="0.3"/>
</svg>
