<svg width="23" height="21" viewBox="0 0 23 21" fill="none" xmlns="http://www.w3.org/2000/svg">
<g filter="url(#filter0_i_2462_127)">
<path d="M-5.27743e-05 5.06344C-5.27743e-05 4.49625 0.0618222 2.68125 0.329947 1.63969C0.680572 0.175315 2.2687 2.41771e-06 3.15557 1.03125C4.1662 2.17594 5.38307 2.65031 6.91963 2.65031C8.75526 2.65031 10.4465 2.17594 12.1893 2.17594C17.3146 2.17594 21.0374 5.50688 21.0374 10.0959C21.0374 11.3025 20.8003 12.4163 20.3671 13.4063C21.6871 15.3553 22.739 17.2528 22.739 18.4594C22.739 19.5113 21.9449 20.4188 20.9653 20.4188C20.4084 20.4188 19.9443 20.0888 19.7484 19.4803C19.3256 18.1397 19.0678 16.9434 18.6243 15.8813C17.0465 17.3766 14.7881 18.2531 12.1481 18.2531C4.81588 18.2531 -5.27743e-05 13.0144 -5.27743e-05 5.06344ZM6.10495 7.77563C5.85745 7.03313 6.65151 6.64125 7.1362 7.19813C8.11588 8.39438 9.67307 8.88938 12.0346 9.25031C14.9118 9.67313 17.0053 10.3228 18.4696 11.3541C18.5521 10.9519 18.6037 10.5291 18.6037 10.0959C18.6037 6.88875 15.9637 4.62 12.1893 4.62C11.519 4.62 10.8281 4.7025 10.0134 4.81594C9.10588 4.95 8.06432 5.09438 6.91963 5.09438C5.46557 5.09438 3.89807 4.64063 2.7637 3.84656C2.61932 3.75375 2.50588 3.77438 2.49557 4.00125C2.44401 4.30031 2.44401 4.7025 2.44401 5.06344C2.44401 11.6634 6.18745 15.8091 12.1481 15.8091C14.324 15.8091 16.1081 15.0666 17.2424 13.7981C16.0978 12.6019 14.7056 11.9728 11.3128 11.1994C8.65213 10.5806 6.67213 9.53906 6.10495 7.77563Z" fill="#30DB5B"/>
</g>
<defs>
<filter id="filter0_i_2462_127" x="0" y="0" width="22.739" height="21.8588" filterUnits="userSpaceOnUse" color-interpolation-filters="sRGB">
<feFlood flood-opacity="0" result="BackgroundImageFix"/>
<feBlend mode="normal" in="SourceGraphic" in2="BackgroundImageFix" result="shape"/>
<feColorMatrix in="SourceAlpha" type="matrix" values="0 0 0 0 0 0 0 0 0 0 0 0 0 0 0 0 0 0 127 0" result="hardAlpha"/>
<feOffset dy="1.44"/>
<feGaussianBlur stdDeviation="0.72"/>
<feComposite in2="hardAlpha" operator="arithmetic" k2="-1" k3="1"/>
<feColorMatrix type="matrix" values="0 0 0 0 0 0 0 0 0 0 0 0 0 0 0 0 0 0 0.6 0"/>
<feBlend mode="overlay" in2="shape" result="effect1_innerShadow_2462_127"/>
</filter>
</defs>
</svg>
