<svg width="26" height="26" viewBox="0 0 26 26" fill="none" xmlns="http://www.w3.org/2000/svg">
<path d="M21.5375 9.62959C21.7218 10.2735 22.3933 10.6461 23.0372 10.4618C23.6812 10.2775 24.0538 9.60601 23.8694 8.96206L22.7035 9.29583L21.5375 9.62959ZM19.9545 4.52549L20.8279 3.68403L20.8269 3.68306L19.9545 4.52549ZM14.3287 1.42881L14.5738 0.241029L14.5715 0.240565L14.3287 1.42881ZM7.9882 2.07564L7.51047 0.960892L7.50927 0.961407L7.9882 2.07564ZM3.06262 6.24119L2.04337 5.58391L2.04336 5.58394L3.06262 6.24119ZM4.42742 20.5344L5.30441 19.6967L5.30388 19.6961L4.42742 20.5344ZM18.284 21.9429L18.9745 22.9399L18.9748 22.9397L18.284 21.9429ZM23.4532 17.3112C23.7013 16.6891 23.3981 15.9836 22.7759 15.7355C22.1537 15.4874 21.4482 15.7907 21.2001 16.4129L22.3267 16.8621L23.4532 17.3112ZM21.5295 8.99073C21.3611 9.63901 21.75 10.3011 22.3983 10.4696C23.0466 10.6381 23.7087 10.2491 23.8772 9.60084L22.7034 9.29579L21.5295 8.99073ZM25.0253 5.18302C25.1938 4.53474 24.8048 3.87264 24.1565 3.70416C23.5082 3.53569 22.8461 3.92464 22.6777 4.57292L23.8515 4.87797L25.0253 5.18302ZM22.3804 10.4647C23.026 10.6432 23.694 10.2644 23.8724 9.61879C24.0508 8.97317 23.672 8.30518 23.0264 8.12677L22.7034 9.29576L22.3804 10.4647ZM18.7428 6.94308C18.0972 6.76468 17.4292 7.14343 17.2508 7.78904C17.0724 8.43466 17.4511 9.10266 18.0968 9.28106L18.4198 8.11207L18.7428 6.94308ZM12.1279 9.29586C12.1279 8.62605 11.5849 8.08306 10.9151 8.08306C10.2453 8.08306 9.70231 8.62605 9.70231 9.29586H10.9151H12.1279ZM10.9151 14.147H9.70231C9.70231 14.8169 10.2453 15.3598 10.9151 15.3598V14.147ZM15.7663 15.3598C16.4361 15.3598 16.9791 14.8169 16.9791 14.147C16.9791 13.4772 16.4361 12.9343 15.7663 12.9343V14.147V15.3598ZM22.7035 9.29583L23.8694 8.96206C23.3022 6.98056 22.2579 5.16832 20.8279 3.68403L19.9545 4.52549L19.0811 5.36695C20.236 6.56569 21.0794 8.02929 21.5375 9.62959L22.7035 9.29583ZM19.9545 4.52549L20.8269 3.68306C19.1365 1.93241 16.9571 0.732749 14.5738 0.241031L14.3287 1.42881L14.0836 2.61659C15.9887 3.00964 17.7308 3.96857 19.082 5.36792L19.9545 4.52549ZM14.3287 1.42881L14.5715 0.240565C12.1994 -0.24411 9.73584 0.00720815 7.51047 0.960893L7.9882 2.07564L8.46592 3.19038C10.2371 2.43133 12.1979 2.2313 14.0859 2.61706L14.3287 1.42881ZM7.9882 2.07564L7.50927 0.961407C5.2683 1.92463 3.36532 3.53398 2.04337 5.58391L3.06262 6.24119L4.08186 6.89848C5.14245 5.25383 6.6692 3.96266 8.46712 3.18987L7.9882 2.07564ZM3.06262 6.24119L2.04336 5.58394C-1.16667 10.562 -0.543146 17.0921 3.55096 21.3727L4.42742 20.5344L5.30388 19.6961C1.98537 16.2264 1.47996 10.9335 4.08188 6.89845L3.06262 6.24119ZM4.42742 20.5344L3.55043 21.3721C7.60606 25.6179 14.1476 26.2828 18.9745 22.9399L18.284 21.9429L17.5935 20.9458C13.7476 23.6093 8.53573 23.0795 5.30441 19.6967L4.42742 20.5344ZM18.284 21.9429L18.9748 22.9397C20.9883 21.5444 22.546 19.5867 23.4532 17.3112L22.3267 16.8621L21.2001 16.4129C20.4694 18.2456 19.2149 19.8223 17.5932 20.946L18.284 21.9429ZM22.7034 9.29579L23.8772 9.60084L25.0253 5.18302L23.8515 4.87797L22.6777 4.57292L21.5295 8.99073L22.7034 9.29579ZM22.7034 9.29576L23.0264 8.12677L18.7428 6.94308L18.4198 8.11207L18.0968 9.28106L22.3804 10.4647L22.7034 9.29576ZM10.9151 9.29586H9.70231V14.147H10.9151H12.1279V9.29586H10.9151ZM10.9151 14.147V15.3598H15.7663V14.147V12.9343H10.9151V14.147Z" fill="#3C3C43" fill-opacity="0.3"/>
</svg>
