<svg width="24" height="22" viewBox="0 0 24 22" fill="none" xmlns="http://www.w3.org/2000/svg">
<path fill-rule="evenodd" clip-rule="evenodd" d="M11.3108 16.2387C10.8407 15.6823 10.9106 14.8501 11.467 14.38C11.5909 14.2753 11.7968 14.0077 11.8544 13.6534C11.9022 13.359 11.8741 12.854 11.298 12.1509C10.2008 10.8117 9.65675 9.53729 9.8063 8.22681C9.94767 6.9881 10.6914 6.02491 11.3044 5.28823C11.8686 4.61028 12.266 3.92722 12.3846 3.37767C12.4397 3.12276 12.4238 2.94685 12.383 2.82323C12.3458 2.71056 12.2601 2.55459 12.0191 2.37359C11.4367 1.93615 11.3191 1.10937 11.7566 0.526932C12.194 -0.0555082 13.0208 -0.173049 13.6033 0.264395C14.2249 0.731285 14.663 1.31576 14.8876 1.99561C15.1087 2.66449 15.0928 3.33315 14.963 3.93438C14.712 5.0971 14.0002 6.1726 13.3321 6.97554C12.7127 7.71975 12.4706 8.14489 12.4271 8.52591C12.3918 8.83515 12.464 9.41181 13.3384 10.4791C14.3397 11.7012 14.6403 12.9547 14.4581 14.0764C14.2856 15.1382 13.7028 15.9443 13.1695 16.3949C12.6131 16.865 11.7809 16.7951 11.3108 16.2387ZM18.345 16.2387C17.8749 15.6823 17.9449 14.8501 18.5013 14.38C18.6252 14.2753 18.8311 14.0077 18.8886 13.6534C18.9365 13.359 18.9084 12.854 18.3323 12.1509C17.235 10.8117 16.691 9.53729 16.8405 8.22681C16.9819 6.9881 17.7256 6.02491 18.3387 5.28823C18.8046 4.72833 19.6362 4.65215 20.1961 5.11808C20.7561 5.58402 20.8322 6.41563 20.3663 6.97554C19.747 7.71975 19.5049 8.14489 19.4614 8.52591C19.4261 8.83515 19.4982 9.41181 20.3727 10.4791C21.374 11.7012 21.6745 12.9547 21.4923 14.0764C21.3199 15.1382 20.737 15.9443 20.2037 16.3949C19.6473 16.865 18.8152 16.7951 18.345 16.2387ZM4.27659 16.2387C3.80647 15.6823 3.87641 14.8501 4.43281 14.38C4.55673 14.2753 4.76262 14.0077 4.82018 13.6534C4.868 13.359 4.83993 12.854 4.26384 12.1509C3.16659 10.8117 2.62253 9.53729 2.77209 8.22681C2.91346 6.9881 3.6572 6.02491 4.27023 5.28823C4.73617 4.72833 5.56778 4.65215 6.12769 5.11808C6.6876 5.58402 6.76378 6.41563 6.29784 6.97554C5.67854 7.71975 5.4364 8.14489 5.39292 8.52591C5.35762 8.83515 5.42974 9.41181 6.30423 10.4791C7.30554 11.7012 7.60609 12.9547 7.42388 14.0764C7.2514 15.1382 6.66859 15.9443 6.13527 16.3949C5.57887 16.865 4.74671 16.7951 4.27659 16.2387ZM0 20.6631C0 19.9347 0.590499 19.3442 1.31892 19.3442H22.4216C23.15 19.3442 23.7405 19.9347 23.7405 20.6631C23.7405 21.3916 23.15 21.9821 22.4216 21.9821H1.31892C0.590499 21.9821 0 21.3916 0 20.6631Z" fill="white"/>
</svg>
