<svg width="32" height="32" viewBox="0 0 32 32" fill="none" xmlns="http://www.w3.org/2000/svg">
<path d="M17.5 19.508V8.62599H13.5V19.506C12.097 20.234 11.126 21.686 11.126 23.376C11.1432 24.525 11.6117 25.6211 12.4303 26.4276C13.2489 27.2341 14.3519 27.6862 15.501 27.6863C16.6501 27.6865 17.7532 27.2346 18.572 26.4283C19.3907 25.622 19.8595 24.526 19.877 23.377C19.877 21.687 18.907 20.235 17.501 19.509L17.5 19.508ZM20.5 5.24799C20.5 2.49199 18.256 0.247986 15.5 0.247986C12.744 0.247986 10.5 2.49299 10.5 5.24799V17.975C9.75084 18.6608 9.15275 19.4952 8.74384 20.4249C8.33494 21.3546 8.12418 22.3593 8.125 23.375C8.125 27.441 11.435 30.752 15.501 30.752C19.567 30.752 22.876 27.442 22.876 23.375C22.876 21.289 21.998 19.345 20.501 17.973V5.24999L20.5 5.24799ZM20.875 23.378C20.8731 24.8027 20.3062 26.1684 19.2985 27.1756C18.2908 28.1827 16.9247 28.7489 15.5 28.75C14.0756 28.7481 12.71 28.1815 11.7028 27.1742C10.6955 26.167 10.1289 24.8014 10.127 23.377C10.127 21.582 11.023 19.934 12.503 18.939V5.24999C12.503 3.59699 13.846 2.24999 15.5 2.24999C17.154 2.24999 18.5 3.59599 18.5 5.24999V18.94C19.2306 19.4269 19.8296 20.0866 20.2439 20.8607C20.6582 21.6347 20.875 22.499 20.875 23.377V23.378ZM22.085 8.62599L26.585 11.224V6.02999L22.085 8.62599Z" fill="white"/>
</svg>
