<svg width="26" height="29" viewBox="0 0 26 29" fill="none" xmlns="http://www.w3.org/2000/svg">
<path fill-rule="evenodd" clip-rule="evenodd" d="M19.0005 15.7663C19.0005 19.3387 16.1045 22.2346 12.5322 22.2346C8.9599 22.2346 6.06396 19.3387 6.06396 15.7663C6.06396 12.194 8.9599 9.2981 12.5322 9.2981C14.2477 9.2981 15.8929 9.97957 17.106 11.1926C18.319 12.4056 19.0005 14.0509 19.0005 15.7663Z" stroke="#3C3C43" stroke-opacity="0.3" stroke-width="2.4256" stroke-linecap="round" stroke-linejoin="round"/>
<path d="M7.68102 5.65965C8.35083 5.65965 8.89382 5.11667 8.89382 4.44686C8.89382 3.77705 8.35083 3.23406 7.68102 3.23406V4.44686V5.65965ZM17.3834 3.23406C16.7136 3.23406 16.1706 3.77705 16.1706 4.44686C16.1706 5.11667 16.7136 5.65965 17.3834 5.65965V4.44686V3.23406ZM7.68106 3.2341C7.01125 3.2341 6.46826 3.77709 6.46826 4.4469C6.46826 5.11671 7.01125 5.65969 7.68106 5.65969V4.4469V3.2341ZM17.3834 5.65969C18.0533 5.65969 18.5962 5.11671 18.5962 4.4469C18.5962 3.77709 18.0533 3.2341 17.3834 3.2341V4.4469V5.65969ZM8.8939 4.44686C8.8939 3.77705 8.35091 3.23406 7.6811 3.23406C7.01129 3.23406 6.4683 3.77705 6.4683 4.44686H7.6811H8.8939ZM6.4683 6.06392C6.4683 6.73373 7.01129 7.27672 7.6811 7.27672C8.35091 7.27672 8.8939 6.73373 8.8939 6.06392H7.6811H6.4683ZM6.4683 4.4469C6.4683 5.11671 7.01129 5.65969 7.6811 5.65969C8.35091 5.65969 8.8939 5.11671 8.8939 4.4469H7.6811H6.4683ZM8.8939 1.21277C8.8939 0.542959 8.35091 -2.90871e-05 7.6811 -2.90871e-05C7.01129 -2.90871e-05 6.4683 0.542959 6.4683 1.21277H7.6811H8.8939ZM18.5963 4.44686C18.5963 3.77705 18.0533 3.23406 17.3835 3.23406C16.7137 3.23406 16.1707 3.77705 16.1707 4.44686H17.3835H18.5963ZM16.1707 6.06392C16.1707 6.73373 16.7137 7.27672 17.3835 7.27672C18.0533 7.27672 18.5963 6.73373 18.5963 6.06392H17.3835H16.1707ZM16.1707 4.4469C16.1707 5.11671 16.7137 5.65969 17.3835 5.65969C18.0533 5.65969 18.5963 5.11671 18.5963 4.4469H17.3835H16.1707ZM18.5963 1.21277C18.5963 0.542959 18.0533 -2.90871e-05 17.3835 -2.90871e-05C16.7137 -2.90871e-05 16.1707 0.542959 16.1707 1.21277H17.3835H18.5963ZM12.8216 13.9181C12.8216 13.2483 12.2786 12.7053 11.6088 12.7053C10.939 12.7053 10.396 13.2483 10.396 13.9181H11.6088H12.8216ZM11.6088 16.6898H10.396C10.396 17.3596 10.939 17.9026 11.6088 17.9026V16.6898ZM14.3804 17.9026C15.0502 17.9026 15.5932 17.3596 15.5932 16.6898C15.5932 16.02 15.0502 15.477 14.3804 15.477V16.6898V17.9026ZM7.68102 4.44686V3.23406C3.43889 3.23406 -2.90871e-05 6.67298 -2.90871e-05 10.9151H1.21277H2.42557C2.42557 8.0126 4.77851 5.65965 7.68102 5.65965V4.44686ZM1.21277 10.9151H-2.90871e-05V20.6175H1.21277H2.42557V10.9151H1.21277ZM1.21277 20.6175H-2.90871e-05C-2.90871e-05 24.8596 3.43889 28.2985 7.68102 28.2985V27.0857V25.8729C4.77851 25.8729 2.42557 23.52 2.42557 20.6175H1.21277ZM7.68102 27.0857V28.2985H17.3834V27.0857V25.8729H7.68102V27.0857ZM17.3834 27.0857V28.2985C21.6255 28.2985 25.0645 24.8596 25.0645 20.6175H23.8517H22.6389C22.6389 23.52 20.2859 25.8729 17.3834 25.8729V27.0857ZM23.8517 20.6175H25.0645V10.9151H23.8517H22.6389V20.6175H23.8517ZM23.8517 10.9151H25.0645C25.0645 6.67298 21.6255 3.23406 17.3834 3.23406V4.44686V5.65965C20.2859 5.65965 22.6389 8.0126 22.6389 10.9151H23.8517ZM7.68106 4.4469V5.65969H17.3834V4.4469V3.2341H7.68106V4.4469ZM7.6811 4.44686H6.4683V6.06392H7.6811H8.8939V4.44686H7.6811ZM7.6811 4.4469H8.8939V1.21277H7.6811H6.4683V4.4469H7.6811ZM17.3835 4.44686H16.1707V6.06392H17.3835H18.5963V4.44686H17.3835ZM17.3835 4.4469H18.5963V1.21277H17.3835H16.1707V4.4469H17.3835ZM11.6088 13.9181H10.396V16.6898H11.6088H12.8216V13.9181H11.6088ZM11.6088 16.6898V17.9026H14.3804V16.6898V15.477H11.6088V16.6898Z" fill="#3C3C43" fill-opacity="0.3"/>
</svg>
