<svg width="26" height="26" viewBox="0 0 26 26" fill="none" xmlns="http://www.w3.org/2000/svg">
<path d="M13 7.51563C11.9153 7.51563 10.8549 7.83729 9.95304 8.43992C9.05114 9.04255 8.34819 9.89909 7.93309 10.9012C7.51799 11.9034 7.40938 13.0061 7.621 14.07C7.83262 15.1338 8.35495 16.111 9.12195 16.878C9.88896 17.6451 10.8662 18.1674 11.93 18.379C12.9939 18.5906 14.0966 18.482 15.0988 18.0669C16.1009 17.6518 16.9575 16.9489 17.5601 16.047C18.1627 15.1451 18.4844 14.0847 18.4844 13C18.4844 11.5455 17.9066 10.1505 16.878 9.12197C15.8495 8.09345 14.4545 7.51563 13 7.51563ZM13 17.2656C12.1563 17.2656 11.3316 17.0155 10.6301 16.5467C9.92866 16.078 9.38192 15.4118 9.05907 14.6324C8.73621 13.853 8.65174 12.9953 8.81633 12.1678C8.98092 11.3404 9.38718 10.5803 9.98374 9.98376C10.5803 9.3872 11.3404 8.98094 12.1678 8.81635C12.9953 8.65176 13.8529 8.73623 14.6324 9.05908C15.4118 9.38194 16.078 9.92868 16.5467 10.6302C17.0154 11.3316 17.2656 12.1563 17.2656 13C17.2656 14.1313 16.8162 15.2163 16.0162 16.0163C15.2163 16.8162 14.1313 17.2656 13 17.2656ZM23.6844 15.3969L22.1305 13.325C22.1406 13.1016 22.1305 12.8477 22.1305 12.675L23.6844 10.6031C23.7406 10.5287 23.779 10.4424 23.7966 10.3509C23.8142 10.2593 23.8105 10.1649 23.7859 10.075C23.5351 9.15462 23.1664 8.27049 22.6891 7.44454C22.6435 7.36448 22.5806 7.29559 22.5051 7.24288C22.4296 7.19017 22.3432 7.15498 22.2523 7.13985L19.693 6.77423C19.5406 6.61173 19.3883 6.45938 19.2258 6.30704L18.8601 3.74767C18.8468 3.65748 18.8135 3.57142 18.7625 3.49584C18.7115 3.42025 18.6443 3.35707 18.5656 3.31095C17.7344 2.83705 16.8473 2.46859 15.925 2.21407C15.8351 2.18947 15.7407 2.18583 15.6491 2.20344C15.5576 2.22105 15.4713 2.25943 15.3969 2.31563L13.3351 3.86954C13.1117 3.86277 12.8883 3.86277 12.6648 3.86954L10.6031 2.31563C10.5287 2.25943 10.4424 2.22105 10.3509 2.20344C10.2593 2.18583 10.1649 2.18947 10.075 2.21407C9.15461 2.46494 8.27048 2.83361 7.44453 3.31095C7.36447 3.35651 7.29557 3.41935 7.24287 3.4949C7.19016 3.57045 7.15496 3.6568 7.13984 3.74767L6.77421 6.30704C6.61171 6.45938 6.45937 6.61173 6.30702 6.77423L3.74765 7.13985C3.65746 7.15315 3.5714 7.18652 3.49582 7.23749C3.42024 7.28847 3.35706 7.35575 3.31093 7.43438C2.83704 8.26561 2.46857 9.15265 2.21406 10.075C2.18945 10.1649 2.18582 10.2593 2.20342 10.3509C2.22103 10.4424 2.25941 10.5287 2.31562 10.6031L3.86952 12.675C3.85937 12.8984 3.86952 13.1524 3.86952 13.325L2.31562 15.3969C2.25941 15.4713 2.22103 15.5576 2.20342 15.6491C2.18582 15.7407 2.18945 15.8351 2.21406 15.925C2.46492 16.8454 2.8336 17.7295 3.31093 18.5555C3.35469 18.637 3.41702 18.7071 3.4929 18.76C3.56877 18.8129 3.65604 18.8472 3.74765 18.8602L6.30702 19.2258L6.77421 19.693L7.13984 22.2524C7.15496 22.3432 7.19016 22.4296 7.24287 22.5051C7.29557 22.5807 7.36447 22.6435 7.44453 22.6891C8.27137 23.1646 9.15526 23.5332 10.075 23.7859L10.2375 23.8063C10.3693 23.8063 10.4976 23.7635 10.6031 23.6844L12.6648 22.1305H13.3351L15.3969 23.6844C15.4713 23.7406 15.5576 23.779 15.6491 23.7966C15.7407 23.8142 15.8351 23.8105 15.925 23.7859C16.848 23.5333 17.7352 23.1647 18.5656 22.6891C18.6443 22.6429 18.7115 22.5798 18.7625 22.5042C18.8135 22.4286 18.8468 22.3425 18.8601 22.2524L19.2258 19.693C19.3883 19.5406 19.5609 19.3578 19.6828 19.2258L22.2523 18.8602C22.3425 18.8469 22.4286 18.8135 22.5042 18.7625C22.5797 18.7115 22.6429 18.6443 22.6891 18.5656C23.163 17.7344 23.5314 16.8474 23.7859 15.925C23.8105 15.8351 23.8142 15.7407 23.7966 15.6491C23.779 15.5576 23.7406 15.4713 23.6844 15.3969ZM21.775 17.6922L19.307 18.0477C19.1697 18.0709 19.0424 18.1346 18.9414 18.2305C18.8195 18.3727 18.4437 18.7586 18.2508 18.9313C18.1413 19.029 18.0695 19.1619 18.0476 19.307L17.6922 21.775C17.1173 22.0876 16.5114 22.3395 15.8844 22.5266L13.8836 21.0234C13.7685 20.9414 13.6285 20.9019 13.4875 20.9117H12.5125C12.3715 20.9019 12.2315 20.9414 12.1164 21.0234L10.1156 22.5266C9.48698 22.344 8.88064 22.0919 8.30781 21.775L7.95234 19.307C7.93048 19.1619 7.85864 19.029 7.74921 18.9313C7.50741 18.7199 7.28007 18.4926 7.06874 18.2508C6.97098 18.1414 6.83806 18.0695 6.69296 18.0477L4.22499 17.6922C3.91239 17.1173 3.66051 16.5114 3.47343 15.8844L4.97656 13.8836C5.05722 13.7712 5.09991 13.636 5.09843 13.4977C5.08827 13.3149 5.07812 12.7766 5.08827 12.5125C5.0981 12.3715 5.0586 12.2315 4.97656 12.1164L3.47343 10.1156C3.65605 9.48699 3.90813 8.88065 4.22499 8.30782L6.69296 7.95235C6.83806 7.9305 6.97098 7.85865 7.06874 7.74923C7.28007 7.50742 7.50741 7.28009 7.74921 7.06876C7.85864 6.97099 7.93048 6.83808 7.95234 6.69298L8.30781 4.22501C8.88269 3.91241 9.48856 3.66053 10.1156 3.47345L12.1164 4.97657C12.2315 5.05862 12.3715 5.09811 12.5125 5.08829C12.8375 5.08152 13.1625 5.08152 13.4875 5.08829C13.6285 5.09811 13.7685 5.05862 13.8836 4.97657L15.8844 3.47345C16.513 3.65607 17.1194 3.90814 17.6922 4.22501L18.0476 6.69298C18.0695 6.83808 18.1413 6.97099 18.2508 7.06876C18.4926 7.28009 18.7199 7.50742 18.9312 7.74923C19.029 7.85865 19.1619 7.9305 19.307 7.95235L21.775 8.30782C22.0876 8.8827 22.3395 9.48857 22.5266 10.1156L21.0234 12.1164C20.9428 12.2288 20.9001 12.364 20.9016 12.5024C20.9117 12.6852 20.9219 13.2234 20.9117 13.4875C20.9019 13.6285 20.9414 13.7685 21.0234 13.8836L22.5266 15.8844C22.3439 16.513 22.0919 17.1194 21.775 17.6922Z" fill="black"/>
</svg>
