<svg width="326" height="106" viewBox="0 0 326 106" fill="none" xmlns="http://www.w3.org/2000/svg">
<g clip-path="url(#clip0_403_648)">
<rect width="326" height="106" rx="22" fill="url(#paint0_linear_403_648)"/>
<path d="M17.3643 31H19.8672V19.9785H19.9424L24.4111 31H26.291L30.7598 19.9785H30.8457V31H33.3379V15.499H30.1367L25.3887 27.3369H25.3135L20.5654 15.499H17.3643V31ZM37.694 34.7812C40.068 34.7812 41.4 33.8896 42.2702 31.3867L46.3629 19.6133H43.5485L40.8737 28.7227H40.7985L38.1344 19.6133H35.2125L39.3053 31.0107L39.1442 31.4727C38.8004 32.4287 38.2311 32.7188 37.2106 32.7188C36.8346 32.7188 36.5231 32.665 36.319 32.6221V34.6631C36.6413 34.7168 37.1784 34.7812 37.694 34.7812ZM52.9911 31H62.7988V28.6689H55.7626V15.499H52.9911V31ZM69.7007 31.2256C73.0416 31.2256 75.2115 29.002 75.2115 25.3066V25.2852C75.2115 21.6113 73.0093 19.377 69.69 19.377C66.3814 19.377 64.19 21.6328 64.19 25.2852V25.3066C64.19 28.9912 66.3492 31.2256 69.7007 31.2256ZM69.7115 29.0664C68.0035 29.0664 66.9185 27.7021 66.9185 25.3066V25.2852C66.9185 22.9219 68.025 21.5469 69.69 21.5469C71.3873 21.5469 72.483 22.9111 72.483 25.2852V25.3066C72.483 27.6914 71.398 29.0664 69.7115 29.0664ZM82.3176 31.2256C85.1965 31.2256 87.1193 29.4209 87.3234 27.0469L87.3342 26.9717H84.8098L84.7883 27.0684C84.5412 28.2607 83.6818 29.0664 82.3283 29.0664C80.6418 29.0664 79.5461 27.6914 79.5461 25.3174V25.3066C79.5461 22.9756 80.6311 21.5469 82.3176 21.5469C83.7355 21.5469 84.552 22.4385 84.7775 23.5449L84.799 23.6416H87.3234L87.3127 23.5557C87.1516 21.2783 85.2824 19.377 82.2854 19.377C78.966 19.377 76.8176 21.6543 76.8176 25.2852V25.2959C76.8176 28.9482 78.9338 31.2256 82.3176 31.2256ZM92.6571 31.1934C94.161 31.1934 95.4286 30.4414 96.0838 29.249H96.1483V31H98.8231V23.1689C98.8231 20.8809 96.9862 19.377 94.1395 19.377C91.2498 19.377 89.4989 20.8916 89.3377 22.9111L89.327 23.04H91.8084L91.8299 22.9434C92.0018 22.1055 92.7752 21.5146 94.0428 21.5146C95.3963 21.5146 96.1483 22.2129 96.1483 23.3623V24.1465L93.1727 24.3291C90.412 24.501 88.8436 25.7148 88.8436 27.7344V27.7559C88.8436 29.7861 90.3797 31.1934 92.6571 31.1934ZM91.5077 27.6484V27.6377C91.5077 26.7354 92.2274 26.166 93.5487 26.0801L96.1483 25.9189V26.7783C96.1483 28.1318 94.9881 29.1523 93.452 29.1523C92.2811 29.1523 91.5077 28.583 91.5077 27.6484ZM105.575 31.2256C106.112 31.2256 106.584 31.1719 106.896 31.1289V29.1201C106.713 29.1309 106.509 29.1631 106.251 29.1631C105.274 29.1631 104.78 28.8086 104.78 27.6914V21.6758H106.896V19.6133H104.78V16.7236H102.062V19.6133H100.451V21.6758H102.062V27.917C102.062 30.2588 103.19 31.2256 105.575 31.2256ZM110.511 17.9805C111.349 17.9805 111.993 17.3145 111.993 16.5195C111.993 15.7031 111.349 15.0479 110.511 15.0479C109.673 15.0479 109.018 15.7031 109.018 16.5195C109.018 17.3145 109.673 17.9805 110.511 17.9805ZM109.168 31H111.843V19.6133H109.168V31ZM119.518 31.2256C122.859 31.2256 125.029 29.002 125.029 25.3066V25.2852C125.029 21.6113 122.827 19.377 119.508 19.377C116.199 19.377 114.008 21.6328 114.008 25.2852V25.3066C114.008 28.9912 116.167 31.2256 119.518 31.2256ZM119.529 29.0664C117.821 29.0664 116.736 27.7021 116.736 25.3066V25.2852C116.736 22.9219 117.843 21.5469 119.508 21.5469C121.205 21.5469 122.301 22.9111 122.301 25.2852V25.3066C122.301 27.6914 121.216 29.0664 119.529 29.0664ZM127.108 31H129.783V24.3936C129.783 22.75 130.76 21.6328 132.296 21.6328C133.822 21.6328 134.574 22.5459 134.574 24.168V31H137.248V23.6309C137.248 20.9883 135.82 19.377 133.317 19.377C131.587 19.377 130.427 20.1719 129.836 21.3965H129.783V19.6133H127.108V31Z" fill="white"/>
<path d="M17.168 53H18.2979V45.897H18.3994L23.3696 53H24.4805V43.8403H23.3506V50.9688H23.249L18.2788 43.8403H17.168V53ZM29.4697 53.1206C31.082 53.1206 32.0596 52.2065 32.2944 51.2798L32.3071 51.229H31.2026L31.1772 51.2861C30.9932 51.6987 30.4219 52.1367 29.4951 52.1367C28.2764 52.1367 27.4956 51.3115 27.4639 49.896H32.3896V49.4644C32.3896 47.4204 31.2598 46.0366 29.3999 46.0366C27.54 46.0366 26.334 47.4839 26.334 49.5977V49.604C26.334 51.7495 27.5146 53.1206 29.4697 53.1206ZM29.3936 47.0205C30.4028 47.0205 31.1519 47.6616 31.2661 49.0137H27.4829C27.6035 47.7124 28.3779 47.0205 29.3936 47.0205ZM35.4238 53H36.5283L38.0518 47.7061H38.1533L39.6831 53H40.7939L42.7109 46.1572H41.6128L40.2671 51.6289H40.1655L38.6357 46.1572H37.5884L36.0586 51.6289H35.957L34.6113 46.1572H33.5068L35.4238 53ZM47.9668 53H51.1089C53.832 53 55.4316 51.3052 55.4316 48.4233V48.4106C55.4316 45.5352 53.8257 43.8403 51.1089 43.8403H47.9668V53ZM49.1094 51.9717V44.8687H51.0327C53.064 44.8687 54.2637 46.189 54.2637 48.4233V48.436C54.2637 50.6641 53.0767 51.9717 51.0327 51.9717H49.1094ZM60.0654 53.1206C61.6777 53.1206 62.6553 52.2065 62.8901 51.2798L62.9028 51.229H61.7983L61.7729 51.2861C61.5889 51.6987 61.0176 52.1367 60.0908 52.1367C58.8721 52.1367 58.0913 51.3115 58.0596 49.896H62.9854V49.4644C62.9854 47.4204 61.8555 46.0366 59.9956 46.0366C58.1357 46.0366 56.9297 47.4839 56.9297 49.5977V49.604C56.9297 51.7495 58.1104 53.1206 60.0654 53.1206ZM59.9893 47.0205C60.9985 47.0205 61.7476 47.6616 61.8618 49.0137H58.0786C58.1992 47.7124 58.9736 47.0205 59.9893 47.0205ZM64.7627 53H65.8672V43.4404H64.7627V53ZM68.0508 53H69.1553V48.9502C69.1553 47.7505 69.8472 47.0142 70.939 47.0142C72.0308 47.0142 72.5386 47.6045 72.5386 48.8359V53H73.6431V48.5693C73.6431 46.9443 72.7861 46.0366 71.25 46.0366C70.2407 46.0366 69.5996 46.4619 69.2568 47.1855H69.1553V43.4404H68.0508V53ZM76.2266 44.8369C76.6455 44.8369 76.9883 44.4941 76.9883 44.0752C76.9883 43.6562 76.6455 43.3135 76.2266 43.3135C75.8076 43.3135 75.4648 43.6562 75.4648 44.0752C75.4648 44.4941 75.8076 44.8369 76.2266 44.8369ZM75.668 53H76.7725V46.1572H75.668V53Z" fill="#EBEBF5" fill-opacity="0.6"/>
<g clip-path="url(#clip1_403_648)">
<g clip-path="url(#clip2_403_648)">
<path d="M25.9751 85.6026C28.4485 85.6026 29.8517 87.2455 30.0554 89.23H30.1179C31.7096 89.23 33 90.5219 33 92.115C33 93.7085 31.7096 95 30.1179 95H21.8315C20.2401 95 18.9497 93.7085 18.9497 92.115C18.9497 90.5219 20.2401 89.23 21.8318 89.23H21.8943C22.0996 87.2326 23.5012 85.6026 25.9751 85.6026ZM18.7827 88.812C18.8675 88.9596 18.8946 89.1335 18.8586 89.3C18.8226 89.4665 18.7261 89.6136 18.5879 89.7126L18.5325 89.7482L18.0255 90.042C17.8735 90.1304 17.6934 90.1566 17.5227 90.1152C17.352 90.0738 17.2037 89.968 17.1087 89.8198C17.0136 89.6716 16.9791 89.4923 17.0123 89.3192C17.0455 89.1461 17.1439 88.9925 17.287 88.8903L17.3424 88.8547L17.8498 88.5609C18.0067 88.47 18.193 88.4454 18.368 88.4924C18.5429 88.5394 18.6921 88.6542 18.7827 88.8116V88.812ZM24.3002 85.075C22.8166 85.5529 21.7596 86.6771 21.326 88.1778L21.2893 88.311L21.244 88.4974L21.0832 88.5276C20.6158 88.6263 20.1725 88.8168 19.7788 89.0882C19.4197 88.4709 19.285 87.7478 19.3978 87.042C19.5106 86.3363 19.8639 85.6917 20.3973 85.2181C20.9308 84.7446 21.6115 84.4714 22.3232 84.4452C23.0349 84.4191 23.7336 84.6415 24.3002 85.0746V85.075ZM17.9771 84.8117L18.0286 84.8333L18.5594 85.0816C18.7202 85.1558 18.846 85.2897 18.9103 85.4551C18.9747 85.6206 18.9726 85.8046 18.9044 85.9685C18.8363 86.1323 18.7074 86.2633 18.545 86.3337C18.3826 86.4042 18.1993 86.4086 18.0337 86.3461L17.9821 86.3242L17.4513 86.0758C17.2918 86.0009 17.1673 85.867 17.1038 85.7021C17.0403 85.5372 17.0427 85.3541 17.1106 85.1909C17.1784 85.0278 17.3065 84.8973 17.4679 84.8266C17.6294 84.756 17.8118 84.7506 17.9771 84.8117ZM25.436 82.5547C25.5765 82.6533 25.6749 82.8014 25.7116 82.9694C25.7483 83.1375 25.7207 83.3133 25.6343 83.4619L25.6039 83.5093L25.2682 83.9907C25.1674 84.1366 25.0142 84.2375 24.8408 84.2723C24.6674 84.3071 24.4873 84.2731 24.3384 84.1773C24.1894 84.0816 24.0833 83.9316 24.0424 83.7589C24.0014 83.5862 24.0288 83.4044 24.1187 83.2515L24.1492 83.2045L24.4848 82.7227C24.5363 82.6489 24.6017 82.586 24.6774 82.5376C24.753 82.4892 24.8375 82.4563 24.9259 82.4406C25.0142 82.425 25.1048 82.427 25.1924 82.4465C25.28 82.466 25.3629 82.5026 25.4364 82.5543L25.436 82.5547ZM21.4193 82.3901L21.4446 82.4512L21.6449 83.0036C21.7055 83.1692 21.7001 83.3519 21.6299 83.5136C21.5597 83.6754 21.4301 83.8037 21.268 83.872C21.1059 83.9403 20.9238 83.9432 20.7596 83.8802C20.5955 83.8171 20.4618 83.693 20.3865 83.5336L20.3611 83.4725L20.1609 82.9201C20.1008 82.7546 20.1065 82.5723 20.1769 82.4109C20.2472 82.2495 20.3767 82.1215 20.5385 82.0533C20.7004 81.9852 20.8822 81.9822 21.0462 82.045C21.2101 82.1078 21.3438 82.2315 21.4193 82.3905V82.3901Z" fill="white"/>
</g>
<path d="M39.168 93H40.3105V89.731H42.6211C44.3413 89.731 45.5601 88.5186 45.5601 86.7793V86.7666C45.5601 85.0273 44.3413 83.8403 42.6211 83.8403H39.168V93ZM42.3291 84.856C43.6367 84.856 44.3921 85.5732 44.3921 86.7793V86.792C44.3921 87.998 43.6367 88.7153 42.3291 88.7153H40.3105V84.856H42.3291ZM48.918 93.1206C49.8384 93.1206 50.5557 92.7207 50.9873 91.9907H51.0889V93H52.1934V88.3154C52.1934 86.8936 51.2603 86.0366 49.5908 86.0366C48.1309 86.0366 47.0898 86.7603 46.9121 87.833L46.9058 87.8711H48.0103L48.0166 87.8521C48.1943 87.3188 48.7339 87.0142 49.5527 87.0142C50.5747 87.0142 51.0889 87.4712 51.0889 88.3154V88.9375L49.1274 89.0581C47.5342 89.1533 46.6328 89.8579 46.6328 91.0767V91.0894C46.6328 92.3335 47.6167 93.1206 48.918 93.1206ZM47.7627 91.064V91.0513C47.7627 90.3721 48.2197 90.0039 49.2607 89.9404L51.0889 89.8262V90.4482C51.0889 91.4258 50.27 92.1621 49.1465 92.1621C48.353 92.1621 47.7627 91.7559 47.7627 91.064ZM54.2119 93H55.3164V88.7598C55.3164 87.7568 56.0654 87.0903 57.1191 87.0903C57.3604 87.0903 57.5698 87.1157 57.7983 87.1538V86.0811C57.6904 86.062 57.4556 86.0366 57.2461 86.0366C56.3193 86.0366 55.6782 86.4556 55.418 87.1729H55.3164V86.1572H54.2119V93ZM61.9751 93.0508C62.1909 93.0508 62.4004 93.0254 62.6162 92.9873V92.0479C62.4131 92.0669 62.3052 92.0732 62.1084 92.0732C61.3975 92.0732 61.1182 91.7495 61.1182 90.9434V87.0713H62.6162V86.1572H61.1182V84.3862H59.9756V86.1572H58.8965V87.0713H59.9756V91.2227C59.9756 92.5303 60.5659 93.0508 61.9751 93.0508ZM64.3301 93H65.4346V83.4404H64.3301V93ZM68.1387 95.3994C69.3511 95.3994 69.916 94.9551 70.481 93.4189L73.1533 86.1572H71.9917L70.1191 91.7876H70.0176L68.1387 86.1572H66.958L69.4907 93.0063L69.3638 93.4126C69.1162 94.1997 68.7354 94.4854 68.1069 94.4854C67.9546 94.4854 67.7832 94.479 67.6499 94.4536V95.3613C67.8022 95.3867 67.9927 95.3994 68.1387 95.3994ZM82.0972 93.2158C84.0459 93.2158 85.4932 92.1304 85.7979 90.4546V90.4419H84.6426L84.6299 90.4546C84.3442 91.5083 83.373 92.1621 82.0972 92.1621C80.3325 92.1621 79.228 90.7212 79.228 88.4297V88.417C79.228 86.1255 80.3325 84.6782 82.0908 84.6782C83.354 84.6782 84.3315 85.4209 84.6362 86.5952L84.6426 86.6079H85.7915L85.7979 86.5952C85.5249 84.8369 84.0205 83.6245 82.0908 83.6245C79.6025 83.6245 78.0537 85.4653 78.0537 88.417V88.4297C78.0537 91.375 79.6089 93.2158 82.0972 93.2158ZM87.6387 93H88.7432V83.4404H87.6387V93ZM93.6753 93.1206C95.624 93.1206 96.8301 91.7749 96.8301 89.585V89.5723C96.8301 87.376 95.624 86.0366 93.6753 86.0366C91.7266 86.0366 90.5205 87.376 90.5205 89.5723V89.585C90.5205 91.7749 91.7266 93.1206 93.6753 93.1206ZM93.6753 92.1431C92.3804 92.1431 91.6504 91.1973 91.6504 89.585V89.5723C91.6504 87.9536 92.3804 87.0142 93.6753 87.0142C94.9702 87.0142 95.7002 87.9536 95.7002 89.5723V89.585C95.7002 91.1973 94.9702 92.1431 93.6753 92.1431ZM100.835 93.1206C101.838 93.1206 102.53 92.708 102.867 91.978H102.968V93H104.073V86.1572H102.968V90.207C102.968 91.4067 102.327 92.1431 101.121 92.1431C100.029 92.1431 99.585 91.5527 99.585 90.3213V86.1572H98.4805V90.5879C98.4805 92.2065 99.2803 93.1206 100.835 93.1206ZM108.662 93.1206C109.614 93.1206 110.376 92.6699 110.795 91.9082H110.896V93H112.001V83.4404H110.896V87.2363H110.795C110.42 86.5063 109.602 86.0366 108.662 86.0366C106.923 86.0366 105.793 87.4268 105.793 89.5723V89.585C105.793 91.7178 106.929 93.1206 108.662 93.1206ZM108.916 92.1431C107.666 92.1431 106.923 91.1782 106.923 89.585V89.5723C106.923 87.979 107.666 87.0142 108.916 87.0142C110.16 87.0142 110.922 87.9917 110.922 89.5723V89.585C110.922 91.1655 110.16 92.1431 108.916 92.1431ZM114.705 95.3994C115.917 95.3994 116.482 94.9551 117.047 93.4189L119.72 86.1572H118.558L116.686 91.7876H116.584L114.705 86.1572H113.524L116.057 93.0063L115.93 93.4126C115.683 94.1997 115.302 94.4854 114.673 94.4854C114.521 94.4854 114.35 94.479 114.216 94.4536V95.3613C114.369 95.3867 114.559 95.3994 114.705 95.3994Z" fill="#EBEBF5" fill-opacity="0.6"/>
</g>
<path d="M254.703 50.0391C261.781 50.0391 266.75 46.0078 266.75 40.3359V40.2891C266.75 36.0469 263.68 32.5781 259.227 31.6172V31.5469C263.047 30.4688 265.531 27.6562 265.531 24V23.9531C265.531 18.8672 261.008 15.1406 254.703 15.1406C248.398 15.1406 243.852 18.8672 243.852 23.9531V24C243.852 27.6562 246.336 30.4688 250.156 31.5469V31.6172C245.703 32.5781 242.633 36.0469 242.633 40.2891V40.3359C242.633 46.0078 247.625 50.0391 254.703 50.0391ZM254.703 30.3281C250.18 30.3281 247.039 27.7969 247.039 24.2578V24.2109C247.039 20.6016 250.156 17.9297 254.703 17.9297C259.227 17.9297 262.344 20.6016 262.344 24.2109V24.2578C262.344 27.7969 259.203 30.3281 254.703 30.3281ZM254.703 47.2266C249.523 47.2266 245.891 44.25 245.891 40.1484V40.1016C245.891 36.0469 249.5 33.1875 254.703 33.1875C259.883 33.1875 263.492 36.0469 263.492 40.1016V40.1484C263.492 44.25 259.883 47.2266 254.703 47.2266ZM277.625 29.3672C281.234 29.3672 284.07 26.5312 284.07 22.9219V22.8984C284.07 19.2891 281.211 16.5 277.625 16.5C274.016 16.5 271.227 19.2891 271.203 22.8984V22.9219C271.203 26.5312 273.992 29.3672 277.625 29.3672ZM277.625 26.7422C275.562 26.7422 273.898 25.1016 273.898 22.9453V22.9219C273.898 20.7188 275.586 19.1016 277.625 19.1016C279.734 19.1016 281.352 20.7188 281.352 22.9219V22.9453C281.352 25.1016 279.758 26.7422 277.625 26.7422Z" fill="white"/>
<path d="M229.668 98.5H230.811V94.3296H235.838V98.5H236.98V89.3403H235.838V93.3013H230.811V89.3403H229.668V98.5ZM240.078 93.6504C240.535 93.6504 240.903 93.2759 240.903 92.8252C240.903 92.3682 240.535 92 240.078 92C239.627 92 239.253 92.3682 239.253 92.8252C239.253 93.2759 239.627 93.6504 240.078 93.6504ZM240.078 98.5635C240.535 98.5635 240.903 98.189 240.903 97.7383C240.903 97.2812 240.535 96.9131 240.078 96.9131C239.627 96.9131 239.253 97.2812 239.253 97.7383C239.253 98.189 239.627 98.5635 240.078 98.5635ZM248.927 98.5H250.069V89.3403H248.933L246.496 91.0923V92.2983L248.825 90.6099H248.927V98.5ZM255.954 98.7158C257.801 98.7158 259.159 97.3892 259.159 95.561V95.5483C259.159 93.79 257.877 92.4824 256.157 92.4824C254.919 92.4824 254.056 93.1489 253.719 93.8979H253.599C253.599 93.8281 253.599 93.752 253.605 93.6821C253.675 91.7715 254.354 90.1465 256.017 90.1465C256.944 90.1465 257.585 90.6226 257.864 91.3906L257.89 91.4604H259.039L259.02 91.3779C258.708 90.0259 257.566 89.1245 256.03 89.1245C253.808 89.1245 252.507 90.9526 252.507 94.0757V94.0884C252.507 97.5352 254.278 98.7158 255.954 98.7158ZM253.872 95.5483V95.542C253.872 94.3486 254.773 93.479 255.96 93.479C257.147 93.479 258.01 94.355 258.01 95.5737V95.5864C258.01 96.7734 257.09 97.7065 255.941 97.7065C254.779 97.7065 253.872 96.7544 253.872 95.5483ZM263.038 93.8027C264.263 93.8027 265.158 92.8569 265.158 91.689V91.6763C265.158 90.5083 264.263 89.5625 263.038 89.5625C261.806 89.5625 260.917 90.5083 260.917 91.6763V91.689C260.917 92.8569 261.806 93.8027 263.038 93.8027ZM263.038 92.9141C262.32 92.9141 261.87 92.3555 261.87 91.689V91.6763C261.87 90.9971 262.327 90.4512 263.038 90.4512C263.736 90.4512 264.206 90.9971 264.206 91.6763V91.689C264.206 92.3555 263.742 92.9141 263.038 92.9141ZM270.928 98.5H276.488V97.4717H272.07V89.3403H270.928V98.5ZM279.078 93.6504C279.535 93.6504 279.903 93.2759 279.903 92.8252C279.903 92.3682 279.535 92 279.078 92C278.627 92 278.253 92.3682 278.253 92.8252C278.253 93.2759 278.627 93.6504 279.078 93.6504ZM279.078 98.5635C279.535 98.5635 279.903 98.189 279.903 97.7383C279.903 97.2812 279.535 96.9131 279.078 96.9131C278.627 96.9131 278.253 97.2812 278.253 97.7383C278.253 98.189 278.627 98.5635 279.078 98.5635ZM288.923 98.7158C290.771 98.7158 292.129 97.3892 292.129 95.561V95.5483C292.129 93.79 290.847 92.4824 289.126 92.4824C287.889 92.4824 287.025 93.1489 286.689 93.8979H286.568C286.568 93.8281 286.568 93.752 286.575 93.6821C286.645 91.7715 287.324 90.1465 288.987 90.1465C289.914 90.1465 290.555 90.6226 290.834 91.3906L290.859 91.4604H292.008L291.989 91.3779C291.678 90.0259 290.536 89.1245 289 89.1245C286.778 89.1245 285.477 90.9526 285.477 94.0757V94.0884C285.477 97.5352 287.248 98.7158 288.923 98.7158ZM286.841 95.5483V95.542C286.841 94.3486 287.743 93.479 288.93 93.479C290.117 93.479 290.98 94.355 290.98 95.5737V95.5864C290.98 96.7734 290.06 97.7065 288.911 97.7065C287.749 97.7065 286.841 96.7544 286.841 95.5483ZM296.007 93.8027C297.232 93.8027 298.127 92.8569 298.127 91.689V91.6763C298.127 90.5083 297.232 89.5625 296.007 89.5625C294.776 89.5625 293.887 90.5083 293.887 91.6763V91.689C293.887 92.8569 294.776 93.8027 296.007 93.8027ZM296.007 92.9141C295.29 92.9141 294.839 92.3555 294.839 91.689V91.6763C294.839 90.9971 295.296 90.4512 296.007 90.4512C296.706 90.4512 297.175 90.9971 297.175 91.6763V91.689C297.175 92.3555 296.712 92.9141 296.007 92.9141Z" fill="#EBEBF5" fill-opacity="0.6"/>
</g>
<defs>
<linearGradient id="paint0_linear_403_648" x1="-7.43161" y1="-1.1838e-06" x2="337.484" y2="109.662" gradientUnits="userSpaceOnUse">
<stop stop-color="#779BE7"/>
<stop offset="1" stop-color="#A480CF"/>
</linearGradient>
<clipPath id="clip0_403_648">
<rect width="326" height="106" rx="22" fill="white"/>
</clipPath>
<clipPath id="clip1_403_648">
<rect width="105" height="18" fill="white" transform="translate(16 80)"/>
</clipPath>
<clipPath id="clip2_403_648">
<rect width="18" height="18" fill="white" transform="translate(16 80)"/>
</clipPath>
</defs>
</svg>
